<?xml version="1.0" encoding="UTF-8" standalone="no"?>
<!DOCTYPE svg PUBLIC "-//W3C//DTD SVG 1.1//EN"
 "http://www.w3.org/Graphics/SVG/1.1/DTD/svg11.dtd">
<!-- Generated by graphviz version 2.47.3 (20210619.2315)
 -->
<!-- Pages: 1 -->
<svg width="226pt" height="194pt"
 viewBox="0.00 0.00 226.41 193.91" xmlns="http://www.w3.org/2000/svg" xmlns:xlink="http://www.w3.org/1999/xlink">
<g id="graph0" class="graph" transform="scale(1 1) rotate(0) translate(4 189.91)">
<polygon fill="white" stroke="transparent" points="-4,4 -4,-189.91 222.41,-189.91 222.41,4 -4,4"/>
<!-- goals_A -->
<g id="node1" class="node">
<title>goals_A</title>
<ellipse fill="lightgrey" stroke="black" cx="50.2" cy="-37.48" rx="50.41" ry="37.45"/>
<text text-anchor="middle" x="50.2" y="-48.78" font-family="Times,serif" font-size="14.00">goals_A</text>
<text text-anchor="middle" x="50.2" y="-33.78" font-family="Times,serif" font-size="14.00">~</text>
<text text-anchor="middle" x="50.2" y="-18.78" font-family="Times,serif" font-size="14.00">Poisson</text>
</g>
<!-- goals_B -->
<g id="node2" class="node">
<title>goals_B</title>
<ellipse fill="lightgrey" stroke="black" cx="168.2" cy="-37.48" rx="50.41" ry="37.45"/>
<text text-anchor="middle" x="168.2" y="-48.78" font-family="Times,serif" font-size="14.00">goals_B</text>
<text text-anchor="middle" x="168.2" y="-33.78" font-family="Times,serif" font-size="14.00">~</text>
<text text-anchor="middle" x="168.2" y="-18.78" font-family="Times,serif" font-size="14.00">Poisson</text>
</g>
<!-- mu_A -->
<g id="node3" class="node">
<title>mu_A</title>
<ellipse fill="none" stroke="black" cx="50.2" cy="-148.43" rx="50.41" ry="37.45"/>
<text text-anchor="middle" x="50.2" y="-159.73" font-family="Times,serif" font-size="14.00">mu_A</text>
<text text-anchor="middle" x="50.2" y="-144.73" font-family="Times,serif" font-size="14.00">~</text>
<text text-anchor="middle" x="50.2" y="-129.73" font-family="Times,serif" font-size="14.00">Gamma</text>
</g>
<!-- mu_A&#45;&gt;goals_A -->
<g id="edge1" class="edge">
<title>mu_A&#45;&gt;goals_A</title>
<path fill="none" stroke="black" d="M50.2,-110.85C50.2,-102.67 50.2,-93.89 50.2,-85.37"/>
<polygon fill="black" stroke="black" points="53.7,-85.15 50.2,-75.15 46.7,-85.15 53.7,-85.15"/>
</g>
<!-- mu_B -->
<g id="node4" class="node">
<title>mu_B</title>
<ellipse fill="none" stroke="black" cx="168.2" cy="-148.43" rx="50.41" ry="37.45"/>
<text text-anchor="middle" x="168.2" y="-159.73" font-family="Times,serif" font-size="14.00">mu_B</text>
<text text-anchor="middle" x="168.2" y="-144.73" font-family="Times,serif" font-size="14.00">~</text>
<text text-anchor="middle" x="168.2" y="-129.73" font-family="Times,serif" font-size="14.00">Gamma</text>
</g>
<!-- mu_B&#45;&gt;goals_B -->
<g id="edge2" class="edge">
<title>mu_B&#45;&gt;goals_B</title>
<path fill="none" stroke="black" d="M168.2,-110.85C168.2,-102.67 168.2,-93.89 168.2,-85.37"/>
<polygon fill="black" stroke="black" points="171.7,-85.15 168.2,-75.15 164.7,-85.15 171.7,-85.15"/>
</g>
</g>
</svg>
