<?xml version="1.0" encoding="UTF-8" standalone="no"?>
<!DOCTYPE svg PUBLIC "-//W3C//DTD SVG 1.1//EN"
 "http://www.w3.org/Graphics/SVG/1.1/DTD/svg11.dtd">
<!-- Generated by graphviz version 2.47.3 (20210619.2315)
 -->
<!-- Pages: 1 -->
<svg width="2686pt" height="344pt"
 viewBox="0.00 0.00 2686.23 343.86" xmlns="http://www.w3.org/2000/svg" xmlns:xlink="http://www.w3.org/1999/xlink">
<g id="graph0" class="graph" transform="scale(1 1) rotate(0) translate(4 339.86)">
<polygon fill="white" stroke="transparent" points="-4,4 -4,-339.86 2682.23,-339.86 2682.23,4 -4,4"/>
<g id="clust1" class="cluster">
<title>cluster6</title>
<path fill="none" stroke="black" d="M1361.18,-8C1361.18,-8 2515.18,-8 2515.18,-8 2521.18,-8 2527.18,-14 2527.18,-20 2527.18,-20 2527.18,-109.95 2527.18,-109.95 2527.18,-115.95 2521.18,-121.95 2515.18,-121.95 2515.18,-121.95 1361.18,-121.95 1361.18,-121.95 1355.18,-121.95 1349.18,-115.95 1349.18,-109.95 1349.18,-109.95 1349.18,-20 1349.18,-20 1349.18,-14 1355.18,-8 1361.18,-8"/>
<text text-anchor="middle" x="2514.18" y="-15.8" font-family="Times,serif" font-size="14.00">6</text>
</g>
<g id="clust2" class="cluster">
<title>cluster5</title>
<path fill="none" stroke="black" d="M415.18,-8C415.18,-8 1097.18,-8 1097.18,-8 1103.18,-8 1109.18,-14 1109.18,-20 1109.18,-20 1109.18,-109.95 1109.18,-109.95 1109.18,-115.95 1103.18,-121.95 1097.18,-121.95 1097.18,-121.95 415.18,-121.95 415.18,-121.95 409.18,-121.95 403.18,-115.95 403.18,-109.95 403.18,-109.95 403.18,-20 403.18,-20 403.18,-14 409.18,-8 415.18,-8"/>
<text text-anchor="middle" x="1096.18" y="-15.8" font-family="Times,serif" font-size="14.00">5</text>
</g>
<g id="clust3" class="cluster">
<title>cluster7</title>
<path fill="none" stroke="black" d="M37.18,-8C37.18,-8 247.18,-8 247.18,-8 253.18,-8 259.18,-14 259.18,-20 259.18,-20 259.18,-109.95 259.18,-109.95 259.18,-115.95 253.18,-121.95 247.18,-121.95 247.18,-121.95 37.18,-121.95 37.18,-121.95 31.18,-121.95 25.18,-115.95 25.18,-109.95 25.18,-109.95 25.18,-20 25.18,-20 25.18,-14 31.18,-8 37.18,-8"/>
<text text-anchor="middle" x="246.18" y="-15.8" font-family="Times,serif" font-size="14.00">7</text>
</g>
<!-- mu_BOS19 -->
<g id="node1" class="node">
<title>mu_BOS19</title>
<ellipse fill="none" stroke="black" cx="67.18" cy="-187.43" rx="67.35" ry="37.45"/>
<text text-anchor="middle" x="67.18" y="-198.73" font-family="Times,serif" font-size="14.00">mu_BOS19</text>
<text text-anchor="middle" x="67.18" y="-183.73" font-family="Times,serif" font-size="14.00">~</text>
<text text-anchor="middle" x="67.18" y="-168.73" font-family="Times,serif" font-size="14.00">Gamma</text>
</g>
<!-- BOS19 -->
<g id="node37" class="node">
<title>BOS19</title>
<ellipse fill="lightgrey" stroke="black" cx="83.18" cy="-76.48" rx="50.41" ry="37.45"/>
<text text-anchor="middle" x="83.18" y="-87.78" font-family="Times,serif" font-size="14.00">BOS19</text>
<text text-anchor="middle" x="83.18" y="-72.78" font-family="Times,serif" font-size="14.00">~</text>
<text text-anchor="middle" x="83.18" y="-57.78" font-family="Times,serif" font-size="14.00">Poisson</text>
</g>
<!-- mu_BOS19&#45;&gt;BOS19 -->
<g id="edge42" class="edge">
<title>mu_BOS19&#45;&gt;BOS19</title>
<path fill="none" stroke="black" d="M72.55,-149.85C73.77,-141.49 75.09,-132.51 76.37,-123.81"/>
<polygon fill="black" stroke="black" points="79.85,-124.18 77.84,-113.78 72.93,-123.16 79.85,-124.18"/>
</g>
<!-- mu_WSH18 -->
<g id="node2" class="node">
<title>mu_WSH18</title>
<ellipse fill="none" stroke="black" cx="371.18" cy="-187.43" rx="70.92" ry="37.45"/>
<text text-anchor="middle" x="371.18" y="-198.73" font-family="Times,serif" font-size="14.00">mu_WSH18</text>
<text text-anchor="middle" x="371.18" y="-183.73" font-family="Times,serif" font-size="14.00">~</text>
<text text-anchor="middle" x="371.18" y="-168.73" font-family="Times,serif" font-size="14.00">Gamma</text>
</g>
<!-- WSH18 -->
<g id="node33" class="node">
<title>WSH18</title>
<ellipse fill="lightgrey" stroke="black" cx="461.18" cy="-76.48" rx="50.41" ry="37.45"/>
<text text-anchor="middle" x="461.18" y="-87.78" font-family="Times,serif" font-size="14.00">WSH18</text>
<text text-anchor="middle" x="461.18" y="-72.78" font-family="Times,serif" font-size="14.00">~</text>
<text text-anchor="middle" x="461.18" y="-57.78" font-family="Times,serif" font-size="14.00">Poisson</text>
</g>
<!-- mu_WSH18&#45;&gt;WSH18 -->
<g id="edge36" class="edge">
<title>mu_WSH18&#45;&gt;WSH18</title>
<path fill="none" stroke="black" d="M398.91,-152.85C408.31,-141.47 418.9,-128.66 428.64,-116.87"/>
<polygon fill="black" stroke="black" points="431.55,-118.84 435.22,-108.9 426.15,-114.38 431.55,-118.84"/>
</g>
<!-- mu_BOS13 -->
<g id="node3" class="node">
<title>mu_BOS13</title>
<ellipse fill="none" stroke="black" cx="1283.18" cy="-187.43" rx="67.35" ry="37.45"/>
<text text-anchor="middle" x="1283.18" y="-198.73" font-family="Times,serif" font-size="14.00">mu_BOS13</text>
<text text-anchor="middle" x="1283.18" y="-183.73" font-family="Times,serif" font-size="14.00">~</text>
<text text-anchor="middle" x="1283.18" y="-168.73" font-family="Times,serif" font-size="14.00">Gamma</text>
</g>
<!-- BOS13 -->
<g id="node27" class="node">
<title>BOS13</title>
<ellipse fill="lightgrey" stroke="black" cx="1407.18" cy="-76.48" rx="50.41" ry="37.45"/>
<text text-anchor="middle" x="1407.18" y="-87.78" font-family="Times,serif" font-size="14.00">BOS13</text>
<text text-anchor="middle" x="1407.18" y="-72.78" font-family="Times,serif" font-size="14.00">~</text>
<text text-anchor="middle" x="1407.18" y="-57.78" font-family="Times,serif" font-size="14.00">Poisson</text>
</g>
<!-- mu_BOS13&#45;&gt;BOS13 -->
<g id="edge3" class="edge">
<title>mu_BOS13&#45;&gt;BOS13</title>
<path fill="none" stroke="black" d="M1318.38,-155.5C1333.76,-141.98 1351.87,-126.07 1367.71,-112.16"/>
<polygon fill="black" stroke="black" points="1370.08,-114.73 1375.28,-105.5 1365.45,-109.48 1370.08,-114.73"/>
</g>
<!-- mu_MTL21 -->
<g id="node4" class="node">
<title>mu_MTL21</title>
<ellipse fill="none" stroke="black" cx="528.18" cy="-187.43" rx="67.76" ry="37.45"/>
<text text-anchor="middle" x="528.18" y="-198.73" font-family="Times,serif" font-size="14.00">mu_MTL21</text>
<text text-anchor="middle" x="528.18" y="-183.73" font-family="Times,serif" font-size="14.00">~</text>
<text text-anchor="middle" x="528.18" y="-168.73" font-family="Times,serif" font-size="14.00">Gamma</text>
</g>
<!-- MTL21 -->
<g id="node36" class="node">
<title>MTL21</title>
<ellipse fill="lightgrey" stroke="black" cx="579.18" cy="-76.48" rx="50.41" ry="37.45"/>
<text text-anchor="middle" x="579.18" y="-87.78" font-family="Times,serif" font-size="14.00">MTL21</text>
<text text-anchor="middle" x="579.18" y="-72.78" font-family="Times,serif" font-size="14.00">~</text>
<text text-anchor="middle" x="579.18" y="-57.78" font-family="Times,serif" font-size="14.00">Poisson</text>
</g>
<!-- mu_MTL21&#45;&gt;MTL21 -->
<g id="edge51" class="edge">
<title>mu_MTL21&#45;&gt;MTL21</title>
<path fill="none" stroke="black" d="M544.73,-151.06C549.14,-141.64 553.96,-131.35 558.55,-121.53"/>
<polygon fill="black" stroke="black" points="561.8,-122.84 562.87,-112.3 555.46,-119.87 561.8,-122.84"/>
</g>
<!-- mu_PIT17 -->
<g id="node5" class="node">
<title>mu_PIT17</title>
<ellipse fill="none" stroke="black" cx="1430.18" cy="-187.43" rx="62.45" ry="37.45"/>
<text text-anchor="middle" x="1430.18" y="-198.73" font-family="Times,serif" font-size="14.00">mu_PIT17</text>
<text text-anchor="middle" x="1430.18" y="-183.73" font-family="Times,serif" font-size="14.00">~</text>
<text text-anchor="middle" x="1430.18" y="-168.73" font-family="Times,serif" font-size="14.00">Gamma</text>
</g>
<!-- PIT17 -->
<g id="node23" class="node">
<title>PIT17</title>
<ellipse fill="lightgrey" stroke="black" cx="1525.18" cy="-76.48" rx="50.41" ry="37.45"/>
<text text-anchor="middle" x="1525.18" y="-87.78" font-family="Times,serif" font-size="14.00">PIT17</text>
<text text-anchor="middle" x="1525.18" y="-72.78" font-family="Times,serif" font-size="14.00">~</text>
<text text-anchor="middle" x="1525.18" y="-57.78" font-family="Times,serif" font-size="14.00">Poisson</text>
</g>
<!-- mu_PIT17&#45;&gt;PIT17 -->
<g id="edge30" class="edge">
<title>mu_PIT17&#45;&gt;PIT17</title>
<path fill="none" stroke="black" d="M1458.42,-154.04C1468.84,-142.09 1480.74,-128.43 1491.59,-116"/>
<polygon fill="black" stroke="black" points="1494.25,-118.28 1498.18,-108.44 1488.97,-113.67 1494.25,-118.28"/>
</g>
<!-- mu_VGK18 -->
<g id="node6" class="node">
<title>mu_VGK18</title>
<ellipse fill="none" stroke="black" cx="681.18" cy="-187.43" rx="67.35" ry="37.45"/>
<text text-anchor="middle" x="681.18" y="-198.73" font-family="Times,serif" font-size="14.00">mu_VGK18</text>
<text text-anchor="middle" x="681.18" y="-183.73" font-family="Times,serif" font-size="14.00">~</text>
<text text-anchor="middle" x="681.18" y="-168.73" font-family="Times,serif" font-size="14.00">Gamma</text>
</g>
<!-- VGK18 -->
<g id="node32" class="node">
<title>VGK18</title>
<ellipse fill="lightgrey" stroke="black" cx="697.18" cy="-76.48" rx="50.41" ry="37.45"/>
<text text-anchor="middle" x="697.18" y="-87.78" font-family="Times,serif" font-size="14.00">VGK18</text>
<text text-anchor="middle" x="697.18" y="-72.78" font-family="Times,serif" font-size="14.00">~</text>
<text text-anchor="middle" x="697.18" y="-57.78" font-family="Times,serif" font-size="14.00">Poisson</text>
</g>
<!-- mu_VGK18&#45;&gt;VGK18 -->
<g id="edge33" class="edge">
<title>mu_VGK18&#45;&gt;VGK18</title>
<path fill="none" stroke="black" d="M686.55,-149.85C687.77,-141.49 689.09,-132.51 690.37,-123.81"/>
<polygon fill="black" stroke="black" points="693.85,-124.18 691.84,-113.78 686.93,-123.16 693.85,-124.18"/>
</g>
<!-- mu_CHI13 -->
<g id="node7" class="node">
<title>mu_CHI13</title>
<ellipse fill="none" stroke="black" cx="1575.18" cy="-187.43" rx="65.11" ry="37.45"/>
<text text-anchor="middle" x="1575.18" y="-198.73" font-family="Times,serif" font-size="14.00">mu_CHI13</text>
<text text-anchor="middle" x="1575.18" y="-183.73" font-family="Times,serif" font-size="14.00">~</text>
<text text-anchor="middle" x="1575.18" y="-168.73" font-family="Times,serif" font-size="14.00">Gamma</text>
</g>
<!-- CHI13 -->
<g id="node28" class="node">
<title>CHI13</title>
<ellipse fill="lightgrey" stroke="black" cx="1643.18" cy="-76.48" rx="50.41" ry="37.45"/>
<text text-anchor="middle" x="1643.18" y="-87.78" font-family="Times,serif" font-size="14.00">CHI13</text>
<text text-anchor="middle" x="1643.18" y="-72.78" font-family="Times,serif" font-size="14.00">~</text>
<text text-anchor="middle" x="1643.18" y="-57.78" font-family="Times,serif" font-size="14.00">Poisson</text>
</g>
<!-- mu_CHI13&#45;&gt;CHI13 -->
<g id="edge6" class="edge">
<title>mu_CHI13&#45;&gt;CHI13</title>
<path fill="none" stroke="black" d="M1596.69,-151.96C1603.07,-141.73 1610.14,-130.41 1616.79,-119.74"/>
<polygon fill="black" stroke="black" points="1619.94,-121.32 1622.26,-110.98 1614,-117.61 1619.94,-121.32"/>
</g>
<!-- mu_PIT16 -->
<g id="node8" class="node">
<title>mu_PIT16</title>
<ellipse fill="none" stroke="black" cx="1720.18" cy="-187.43" rx="62.45" ry="37.45"/>
<text text-anchor="middle" x="1720.18" y="-198.73" font-family="Times,serif" font-size="14.00">mu_PIT16</text>
<text text-anchor="middle" x="1720.18" y="-183.73" font-family="Times,serif" font-size="14.00">~</text>
<text text-anchor="middle" x="1720.18" y="-168.73" font-family="Times,serif" font-size="14.00">Gamma</text>
</g>
<!-- PIT16 -->
<g id="node29" class="node">
<title>PIT16</title>
<ellipse fill="lightgrey" stroke="black" cx="1761.18" cy="-76.48" rx="50.41" ry="37.45"/>
<text text-anchor="middle" x="1761.18" y="-87.78" font-family="Times,serif" font-size="14.00">PIT16</text>
<text text-anchor="middle" x="1761.18" y="-72.78" font-family="Times,serif" font-size="14.00">~</text>
<text text-anchor="middle" x="1761.18" y="-57.78" font-family="Times,serif" font-size="14.00">Poisson</text>
</g>
<!-- mu_PIT16&#45;&gt;PIT16 -->
<g id="edge24" class="edge">
<title>mu_PIT16&#45;&gt;PIT16</title>
<path fill="none" stroke="black" d="M1733.6,-150.75C1737,-141.73 1740.69,-131.91 1744.24,-122.49"/>
<polygon fill="black" stroke="black" points="1747.61,-123.45 1747.86,-112.86 1741.06,-120.99 1747.61,-123.45"/>
</g>
<!-- mu_SJS16 -->
<g id="node9" class="node">
<title>mu_SJS16</title>
<ellipse fill="none" stroke="black" cx="1863.18" cy="-187.43" rx="62.87" ry="37.45"/>
<text text-anchor="middle" x="1863.18" y="-198.73" font-family="Times,serif" font-size="14.00">mu_SJS16</text>
<text text-anchor="middle" x="1863.18" y="-183.73" font-family="Times,serif" font-size="14.00">~</text>
<text text-anchor="middle" x="1863.18" y="-168.73" font-family="Times,serif" font-size="14.00">Gamma</text>
</g>
<!-- SJS16 -->
<g id="node25" class="node">
<title>SJS16</title>
<ellipse fill="lightgrey" stroke="black" cx="1879.18" cy="-76.48" rx="50.41" ry="37.45"/>
<text text-anchor="middle" x="1879.18" y="-87.78" font-family="Times,serif" font-size="14.00">SJS16</text>
<text text-anchor="middle" x="1879.18" y="-72.78" font-family="Times,serif" font-size="14.00">~</text>
<text text-anchor="middle" x="1879.18" y="-57.78" font-family="Times,serif" font-size="14.00">Poisson</text>
</g>
<!-- mu_SJS16&#45;&gt;SJS16 -->
<g id="edge21" class="edge">
<title>mu_SJS16&#45;&gt;SJS16</title>
<path fill="none" stroke="black" d="M1868.55,-149.85C1869.77,-141.49 1871.09,-132.51 1872.37,-123.81"/>
<polygon fill="black" stroke="black" points="1875.85,-124.18 1873.84,-113.78 1868.93,-123.16 1875.85,-124.18"/>
</g>
<!-- mu_NSH17 -->
<g id="node10" class="node">
<title>mu_NSH17</title>
<ellipse fill="none" stroke="black" cx="2013.18" cy="-187.43" rx="69.09" ry="37.45"/>
<text text-anchor="middle" x="2013.18" y="-198.73" font-family="Times,serif" font-size="14.00">mu_NSH17</text>
<text text-anchor="middle" x="2013.18" y="-183.73" font-family="Times,serif" font-size="14.00">~</text>
<text text-anchor="middle" x="2013.18" y="-168.73" font-family="Times,serif" font-size="14.00">Gamma</text>
</g>
<!-- NSH17 -->
<g id="node26" class="node">
<title>NSH17</title>
<ellipse fill="lightgrey" stroke="black" cx="1997.18" cy="-76.48" rx="50.41" ry="37.45"/>
<text text-anchor="middle" x="1997.18" y="-87.78" font-family="Times,serif" font-size="14.00">NSH17</text>
<text text-anchor="middle" x="1997.18" y="-72.78" font-family="Times,serif" font-size="14.00">~</text>
<text text-anchor="middle" x="1997.18" y="-57.78" font-family="Times,serif" font-size="14.00">Poisson</text>
</g>
<!-- mu_NSH17&#45;&gt;NSH17 -->
<g id="edge27" class="edge">
<title>mu_NSH17&#45;&gt;NSH17</title>
<path fill="none" stroke="black" d="M2007.8,-149.85C2006.58,-141.49 2005.26,-132.51 2003.98,-123.81"/>
<polygon fill="black" stroke="black" points="2007.42,-123.16 2002.51,-113.78 2000.5,-124.18 2007.42,-123.16"/>
</g>
<!-- alpha -->
<g id="node11" class="node">
<title>alpha</title>
<ellipse fill="none" stroke="black" cx="1275.18" cy="-298.38" rx="72.25" ry="37.45"/>
<text text-anchor="middle" x="1275.18" y="-309.68" font-family="Times,serif" font-size="14.00">alpha</text>
<text text-anchor="middle" x="1275.18" y="-294.68" font-family="Times,serif" font-size="14.00">~</text>
<text text-anchor="middle" x="1275.18" y="-279.68" font-family="Times,serif" font-size="14.00">Exponential</text>
</g>
<!-- alpha&#45;&gt;mu_BOS19 -->
<g id="edge40" class="edge">
<title>alpha&#45;&gt;mu_BOS19</title>
<path fill="none" stroke="black" d="M1203.1,-296.36C986.64,-292.71 344.78,-277.61 143.18,-224.91 136.71,-223.22 130.13,-220.97 123.68,-218.41"/>
<polygon fill="black" stroke="black" points="124.93,-215.14 114.36,-214.48 122.21,-221.59 124.93,-215.14"/>
</g>
<!-- alpha&#45;&gt;mu_WSH18 -->
<g id="edge34" class="edge">
<title>alpha&#45;&gt;mu_WSH18</title>
<path fill="none" stroke="black" d="M1203.25,-294.19C1029.81,-285.98 592.47,-262.16 451.18,-224.91 444.27,-223.09 437.23,-220.72 430.32,-218.06"/>
<polygon fill="black" stroke="black" points="431.58,-214.79 421,-214.27 428.95,-221.28 431.58,-214.79"/>
</g>
<!-- alpha&#45;&gt;mu_BOS13 -->
<g id="edge1" class="edge">
<title>alpha&#45;&gt;mu_BOS13</title>
<path fill="none" stroke="black" d="M1277.86,-260.8C1278.46,-252.63 1279.11,-243.85 1279.73,-235.32"/>
<polygon fill="black" stroke="black" points="1283.24,-235.33 1280.48,-225.1 1276.26,-234.82 1283.24,-235.33"/>
</g>
<!-- alpha&#45;&gt;mu_MTL21 -->
<g id="edge49" class="edge">
<title>alpha&#45;&gt;mu_MTL21</title>
<path fill="none" stroke="black" d="M1202.78,-297.4C1078.27,-295.7 816.58,-284.57 605.18,-224.91 598.67,-223.07 592.04,-220.73 585.52,-218.12"/>
<polygon fill="black" stroke="black" points="586.67,-214.81 576.1,-214.13 583.95,-221.25 586.67,-214.81"/>
</g>
<!-- alpha&#45;&gt;mu_PIT17 -->
<g id="edge28" class="edge">
<title>alpha&#45;&gt;mu_PIT17</title>
<path fill="none" stroke="black" d="M1317.53,-267.61C1337.46,-253.6 1361.33,-236.83 1381.95,-222.33"/>
<polygon fill="black" stroke="black" points="1384.1,-225.09 1390.27,-216.48 1380.08,-219.37 1384.1,-225.09"/>
</g>
<!-- alpha&#45;&gt;mu_VGK18 -->
<g id="edge31" class="edge">
<title>alpha&#45;&gt;mu_VGK18</title>
<path fill="none" stroke="black" d="M1203.31,-294.31C1101.9,-288.42 911.91,-271.63 757.18,-224.91 751.01,-223.05 744.73,-220.75 738.54,-218.22"/>
<polygon fill="black" stroke="black" points="739.5,-214.82 728.93,-214.08 736.73,-221.25 739.5,-214.82"/>
</g>
<!-- alpha&#45;&gt;mu_CHI13 -->
<g id="edge4" class="edge">
<title>alpha&#45;&gt;mu_CHI13</title>
<path fill="none" stroke="black" d="M1327.34,-272.24C1336.82,-268.15 1346.7,-264.19 1356.18,-260.91 1418.92,-239.19 1438.82,-247.72 1501.18,-224.91 1507,-222.78 1512.97,-220.32 1518.88,-217.71"/>
<polygon fill="black" stroke="black" points="1520.42,-220.86 1528.07,-213.52 1517.52,-214.49 1520.42,-220.86"/>
</g>
<!-- alpha&#45;&gt;mu_PIT16 -->
<g id="edge22" class="edge">
<title>alpha&#45;&gt;mu_PIT16</title>
<path fill="none" stroke="black" d="M1326.16,-271.65C1335.93,-267.51 1346.22,-263.69 1356.18,-260.91 1482.53,-225.57 1523.77,-263.48 1649.18,-224.91 1655.09,-223.09 1661.09,-220.8 1666.98,-218.25"/>
<polygon fill="black" stroke="black" points="1668.48,-221.41 1676.11,-214.07 1665.57,-215.05 1668.48,-221.41"/>
</g>
<!-- alpha&#45;&gt;mu_SJS16 -->
<g id="edge19" class="edge">
<title>alpha&#45;&gt;mu_SJS16</title>
<path fill="none" stroke="black" d="M1325.64,-271.51C1335.55,-267.33 1346.02,-263.53 1356.18,-260.91 1544,-212.38 1604.51,-277.73 1791.18,-224.91 1797.28,-223.18 1803.48,-220.92 1809.55,-218.38"/>
<polygon fill="black" stroke="black" points="1811.24,-221.45 1818.94,-214.17 1808.38,-215.06 1811.24,-221.45"/>
</g>
<!-- alpha&#45;&gt;mu_NSH17 -->
<g id="edge25" class="edge">
<title>alpha&#45;&gt;mu_NSH17</title>
<path fill="none" stroke="black" d="M1325.6,-271.34C1335.51,-267.18 1345.99,-263.43 1356.18,-260.91 1606.45,-198.97 1685.35,-288.64 1935.18,-224.91 1941.79,-223.22 1948.53,-220.97 1955.14,-218.42"/>
<polygon fill="black" stroke="black" points="1956.78,-221.53 1964.7,-214.49 1954.12,-215.05 1956.78,-221.53"/>
</g>
<!-- mu_DAL20 -->
<g id="node12" class="node">
<title>mu_DAL20</title>
<ellipse fill="none" stroke="black" cx="2167.18" cy="-187.43" rx="66.44" ry="37.45"/>
<text text-anchor="middle" x="2167.18" y="-198.73" font-family="Times,serif" font-size="14.00">mu_DAL20</text>
<text text-anchor="middle" x="2167.18" y="-183.73" font-family="Times,serif" font-size="14.00">~</text>
<text text-anchor="middle" x="2167.18" y="-168.73" font-family="Times,serif" font-size="14.00">Gamma</text>
</g>
<!-- alpha&#45;&gt;mu_DAL20 -->
<g id="edge43" class="edge">
<title>alpha&#45;&gt;mu_DAL20</title>
<path fill="none" stroke="black" d="M1325.57,-271.23C1335.48,-267.08 1345.98,-263.36 1356.18,-260.91 1674.17,-184.42 1774.14,-305.26 2091.18,-224.91 2097.75,-223.24 2104.44,-220.98 2110.98,-218.4"/>
<polygon fill="black" stroke="black" points="2112.58,-221.52 2120.43,-214.41 2109.86,-215.07 2112.58,-221.52"/>
</g>
<!-- mu_TBL21 -->
<g id="node13" class="node">
<title>mu_TBL21</title>
<ellipse fill="none" stroke="black" cx="831.18" cy="-187.43" rx="65.11" ry="37.45"/>
<text text-anchor="middle" x="831.18" y="-198.73" font-family="Times,serif" font-size="14.00">mu_TBL21</text>
<text text-anchor="middle" x="831.18" y="-183.73" font-family="Times,serif" font-size="14.00">~</text>
<text text-anchor="middle" x="831.18" y="-168.73" font-family="Times,serif" font-size="14.00">Gamma</text>
</g>
<!-- alpha&#45;&gt;mu_TBL21 -->
<g id="edge52" class="edge">
<title>alpha&#45;&gt;mu_TBL21</title>
<path fill="none" stroke="black" d="M1204.88,-289.25C1129.37,-279.22 1006.57,-259.15 905.18,-224.91 899.21,-222.89 893.11,-220.49 887.1,-217.9"/>
<polygon fill="black" stroke="black" points="888.31,-214.61 877.75,-213.7 885.44,-220.99 888.31,-214.61"/>
</g>
<!-- mu_TBL20 -->
<g id="node14" class="node">
<title>mu_TBL20</title>
<ellipse fill="none" stroke="black" cx="2317.18" cy="-187.43" rx="65.11" ry="37.45"/>
<text text-anchor="middle" x="2317.18" y="-198.73" font-family="Times,serif" font-size="14.00">mu_TBL20</text>
<text text-anchor="middle" x="2317.18" y="-183.73" font-family="Times,serif" font-size="14.00">~</text>
<text text-anchor="middle" x="2317.18" y="-168.73" font-family="Times,serif" font-size="14.00">Gamma</text>
</g>
<!-- alpha&#45;&gt;mu_TBL20 -->
<g id="edge46" class="edge">
<title>alpha&#45;&gt;mu_TBL20</title>
<path fill="none" stroke="black" d="M1325.12,-271.34C1335.16,-267.13 1345.82,-263.35 1356.18,-260.91 1739.73,-170.34 1860,-321.13 2242.18,-224.91 2248.78,-223.24 2255.49,-220.96 2262.04,-218.34"/>
<polygon fill="black" stroke="black" points="2263.68,-221.45 2271.5,-214.3 2260.93,-215.01 2263.68,-221.45"/>
</g>
<!-- mu_CHI15 -->
<g id="node15" class="node">
<title>mu_CHI15</title>
<ellipse fill="none" stroke="black" cx="2465.18" cy="-187.43" rx="65.11" ry="37.45"/>
<text text-anchor="middle" x="2465.18" y="-198.73" font-family="Times,serif" font-size="14.00">mu_CHI15</text>
<text text-anchor="middle" x="2465.18" y="-183.73" font-family="Times,serif" font-size="14.00">~</text>
<text text-anchor="middle" x="2465.18" y="-168.73" font-family="Times,serif" font-size="14.00">Gamma</text>
</g>
<!-- alpha&#45;&gt;mu_CHI15 -->
<g id="edge16" class="edge">
<title>alpha&#45;&gt;mu_CHI15</title>
<path fill="none" stroke="black" d="M1325.1,-271.29C1335.15,-267.08 1345.81,-263.32 1356.18,-260.91 1580.31,-208.68 2167.99,-281.03 2391.18,-224.91 2397.61,-223.29 2404.15,-221.06 2410.53,-218.49"/>
<polygon fill="black" stroke="black" points="2411.95,-221.7 2419.75,-214.53 2409.18,-215.27 2411.95,-221.7"/>
</g>
<!-- mu_TBL15 -->
<g id="node16" class="node">
<title>mu_TBL15</title>
<ellipse fill="none" stroke="black" cx="2613.18" cy="-187.43" rx="65.11" ry="37.45"/>
<text text-anchor="middle" x="2613.18" y="-198.73" font-family="Times,serif" font-size="14.00">mu_TBL15</text>
<text text-anchor="middle" x="2613.18" y="-183.73" font-family="Times,serif" font-size="14.00">~</text>
<text text-anchor="middle" x="2613.18" y="-168.73" font-family="Times,serif" font-size="14.00">Gamma</text>
</g>
<!-- alpha&#45;&gt;mu_TBL15 -->
<g id="edge13" class="edge">
<title>alpha&#45;&gt;mu_TBL15</title>
<path fill="none" stroke="black" d="M1325.1,-271.26C1335.14,-267.05 1345.81,-263.3 1356.18,-260.91 1612.45,-201.77 2283.97,-288.5 2539.18,-224.91 2545.62,-223.3 2552.15,-221.08 2558.54,-218.52"/>
<polygon fill="black" stroke="black" points="2559.95,-221.72 2567.76,-214.56 2557.19,-215.29 2559.95,-221.72"/>
</g>
<!-- mu_STL19 -->
<g id="node18" class="node">
<title>mu_STL19</title>
<ellipse fill="none" stroke="black" cx="217.18" cy="-187.43" rx="65.11" ry="37.45"/>
<text text-anchor="middle" x="217.18" y="-198.73" font-family="Times,serif" font-size="14.00">mu_STL19</text>
<text text-anchor="middle" x="217.18" y="-183.73" font-family="Times,serif" font-size="14.00">~</text>
<text text-anchor="middle" x="217.18" y="-168.73" font-family="Times,serif" font-size="14.00">Gamma</text>
</g>
<!-- alpha&#45;&gt;mu_STL19 -->
<g id="edge37" class="edge">
<title>alpha&#45;&gt;mu_STL19</title>
<path fill="none" stroke="black" d="M1203.21,-295.65C1006.53,-290.34 463.28,-271.75 291.18,-224.91 284.77,-223.16 278.25,-220.85 271.88,-218.24"/>
<polygon fill="black" stroke="black" points="273.25,-215.02 262.68,-214.23 270.45,-221.44 273.25,-215.02"/>
</g>
<!-- mu_NYR14 -->
<g id="node19" class="node">
<title>mu_NYR14</title>
<ellipse fill="none" stroke="black" cx="981.18" cy="-187.43" rx="67.35" ry="37.45"/>
<text text-anchor="middle" x="981.18" y="-198.73" font-family="Times,serif" font-size="14.00">mu_NYR14</text>
<text text-anchor="middle" x="981.18" y="-183.73" font-family="Times,serif" font-size="14.00">~</text>
<text text-anchor="middle" x="981.18" y="-168.73" font-family="Times,serif" font-size="14.00">Gamma</text>
</g>
<!-- alpha&#45;&gt;mu_NYR14 -->
<g id="edge7" class="edge">
<title>alpha&#45;&gt;mu_NYR14</title>
<path fill="none" stroke="black" d="M1212.87,-278.97C1168.86,-265.41 1108.76,-245.76 1057.18,-224.91 1051.39,-222.57 1045.42,-219.99 1039.49,-217.33"/>
<polygon fill="black" stroke="black" points="1040.79,-214.07 1030.24,-213.09 1037.87,-220.44 1040.79,-214.07"/>
</g>
<!-- mu_LAK14 -->
<g id="node20" class="node">
<title>mu_LAK14</title>
<ellipse fill="none" stroke="black" cx="1132.18" cy="-187.43" rx="65.52" ry="37.45"/>
<text text-anchor="middle" x="1132.18" y="-198.73" font-family="Times,serif" font-size="14.00">mu_LAK14</text>
<text text-anchor="middle" x="1132.18" y="-183.73" font-family="Times,serif" font-size="14.00">~</text>
<text text-anchor="middle" x="1132.18" y="-168.73" font-family="Times,serif" font-size="14.00">Gamma</text>
</g>
<!-- alpha&#45;&gt;mu_LAK14 -->
<g id="edge10" class="edge">
<title>alpha&#45;&gt;mu_LAK14</title>
<path fill="none" stroke="black" d="M1235.34,-267.03C1217.86,-253.71 1197.2,-237.97 1178.99,-224.1"/>
<polygon fill="black" stroke="black" points="1180.88,-221.14 1170.81,-217.86 1176.64,-226.71 1180.88,-221.14"/>
</g>
<!-- DAL20 -->
<g id="node22" class="node">
<title>DAL20</title>
<ellipse fill="lightgrey" stroke="black" cx="2115.18" cy="-76.48" rx="50.41" ry="37.45"/>
<text text-anchor="middle" x="2115.18" y="-87.78" font-family="Times,serif" font-size="14.00">DAL20</text>
<text text-anchor="middle" x="2115.18" y="-72.78" font-family="Times,serif" font-size="14.00">~</text>
<text text-anchor="middle" x="2115.18" y="-57.78" font-family="Times,serif" font-size="14.00">Poisson</text>
</g>
<!-- mu_DAL20&#45;&gt;DAL20 -->
<g id="edge45" class="edge">
<title>mu_DAL20&#45;&gt;DAL20</title>
<path fill="none" stroke="black" d="M2150.29,-151.06C2145.75,-141.54 2140.79,-131.14 2136.06,-121.23"/>
<polygon fill="black" stroke="black" points="2139.08,-119.45 2131.62,-111.93 2132.77,-122.46 2139.08,-119.45"/>
</g>
<!-- TBL21 -->
<g id="node34" class="node">
<title>TBL21</title>
<ellipse fill="lightgrey" stroke="black" cx="815.18" cy="-76.48" rx="50.41" ry="37.45"/>
<text text-anchor="middle" x="815.18" y="-87.78" font-family="Times,serif" font-size="14.00">TBL21</text>
<text text-anchor="middle" x="815.18" y="-72.78" font-family="Times,serif" font-size="14.00">~</text>
<text text-anchor="middle" x="815.18" y="-57.78" font-family="Times,serif" font-size="14.00">Poisson</text>
</g>
<!-- mu_TBL21&#45;&gt;TBL21 -->
<g id="edge54" class="edge">
<title>mu_TBL21&#45;&gt;TBL21</title>
<path fill="none" stroke="black" d="M825.8,-149.85C824.58,-141.49 823.26,-132.51 821.98,-123.81"/>
<polygon fill="black" stroke="black" points="825.42,-123.16 820.51,-113.78 818.5,-124.18 825.42,-123.16"/>
</g>
<!-- TBL20 -->
<g id="node24" class="node">
<title>TBL20</title>
<ellipse fill="lightgrey" stroke="black" cx="2233.18" cy="-76.48" rx="50.41" ry="37.45"/>
<text text-anchor="middle" x="2233.18" y="-87.78" font-family="Times,serif" font-size="14.00">TBL20</text>
<text text-anchor="middle" x="2233.18" y="-72.78" font-family="Times,serif" font-size="14.00">~</text>
<text text-anchor="middle" x="2233.18" y="-57.78" font-family="Times,serif" font-size="14.00">Poisson</text>
</g>
<!-- mu_TBL20&#45;&gt;TBL20 -->
<g id="edge48" class="edge">
<title>mu_TBL20&#45;&gt;TBL20</title>
<path fill="none" stroke="black" d="M2291.29,-152.85C2282.68,-141.68 2273,-129.13 2264.05,-117.52"/>
<polygon fill="black" stroke="black" points="2266.56,-115.05 2257.69,-109.27 2261.02,-119.33 2266.56,-115.05"/>
</g>
<!-- CHI15 -->
<g id="node21" class="node">
<title>CHI15</title>
<ellipse fill="lightgrey" stroke="black" cx="2351.18" cy="-76.48" rx="50.41" ry="37.45"/>
<text text-anchor="middle" x="2351.18" y="-87.78" font-family="Times,serif" font-size="14.00">CHI15</text>
<text text-anchor="middle" x="2351.18" y="-72.78" font-family="Times,serif" font-size="14.00">~</text>
<text text-anchor="middle" x="2351.18" y="-57.78" font-family="Times,serif" font-size="14.00">Poisson</text>
</g>
<!-- mu_CHI15&#45;&gt;CHI15 -->
<g id="edge18" class="edge">
<title>mu_CHI15&#45;&gt;CHI15</title>
<path fill="none" stroke="black" d="M2432.2,-154.92C2418.77,-142.08 2403.17,-127.17 2389.26,-113.88"/>
<polygon fill="black" stroke="black" points="2391.38,-111.06 2381.73,-106.68 2386.54,-116.12 2391.38,-111.06"/>
</g>
<!-- TBL15 -->
<g id="node30" class="node">
<title>TBL15</title>
<ellipse fill="lightgrey" stroke="black" cx="2469.18" cy="-76.48" rx="50.41" ry="37.45"/>
<text text-anchor="middle" x="2469.18" y="-87.78" font-family="Times,serif" font-size="14.00">TBL15</text>
<text text-anchor="middle" x="2469.18" y="-72.78" font-family="Times,serif" font-size="14.00">~</text>
<text text-anchor="middle" x="2469.18" y="-57.78" font-family="Times,serif" font-size="14.00">Poisson</text>
</g>
<!-- mu_TBL15&#45;&gt;TBL15 -->
<g id="edge15" class="edge">
<title>mu_TBL15&#45;&gt;TBL15</title>
<path fill="none" stroke="black" d="M2574.59,-157.23C2555.26,-142.61 2531.8,-124.86 2511.92,-109.82"/>
<polygon fill="black" stroke="black" points="2514.02,-107.02 2503.93,-103.77 2509.79,-112.6 2514.02,-107.02"/>
</g>
<!-- beta -->
<g id="node17" class="node">
<title>beta</title>
<ellipse fill="none" stroke="black" cx="1437.18" cy="-298.38" rx="72.25" ry="37.45"/>
<text text-anchor="middle" x="1437.18" y="-309.68" font-family="Times,serif" font-size="14.00">beta</text>
<text text-anchor="middle" x="1437.18" y="-294.68" font-family="Times,serif" font-size="14.00">~</text>
<text text-anchor="middle" x="1437.18" y="-279.68" font-family="Times,serif" font-size="14.00">Exponential</text>
</g>
<!-- beta&#45;&gt;mu_BOS19 -->
<g id="edge41" class="edge">
<title>beta&#45;&gt;mu_BOS19</title>
<path fill="none" stroke="black" d="M1387.26,-271.25C1377.21,-267.05 1366.55,-263.3 1356.18,-260.91 1093.38,-200.37 405.21,-288.64 143.18,-224.91 136.58,-223.3 129.89,-221.08 123.34,-218.53"/>
<polygon fill="black" stroke="black" points="124.46,-215.2 113.88,-214.57 121.75,-221.66 124.46,-215.2"/>
</g>
<!-- beta&#45;&gt;mu_WSH18 -->
<g id="edge35" class="edge">
<title>beta&#45;&gt;mu_WSH18</title>
<path fill="none" stroke="black" d="M1387.24,-271.34C1377.19,-267.12 1366.53,-263.35 1356.18,-260.91 964.37,-168.57 842.77,-318.16 451.18,-224.91 444.13,-223.23 436.95,-220.92 429.93,-218.27"/>
<polygon fill="black" stroke="black" points="431.06,-214.96 420.47,-214.48 428.45,-221.45 431.06,-214.96"/>
</g>
<!-- beta&#45;&gt;mu_BOS13 -->
<g id="edge2" class="edge">
<title>beta&#45;&gt;mu_BOS13</title>
<path fill="none" stroke="black" d="M1395.09,-267.61C1375.68,-253.88 1352.51,-237.49 1332.31,-223.19"/>
<polygon fill="black" stroke="black" points="1334.33,-220.33 1324.14,-217.41 1330.28,-226.05 1334.33,-220.33"/>
</g>
<!-- beta&#45;&gt;mu_MTL21 -->
<g id="edge50" class="edge">
<title>beta&#45;&gt;mu_MTL21</title>
<path fill="none" stroke="black" d="M1386.78,-271.22C1376.87,-267.07 1366.37,-263.35 1356.18,-260.91 1031.24,-182.93 929.34,-306.01 605.18,-224.91 598.52,-223.24 591.75,-220.98 585.13,-218.4"/>
<polygon fill="black" stroke="black" points="586.14,-215.03 575.56,-214.42 583.45,-221.49 586.14,-215.03"/>
</g>
<!-- beta&#45;&gt;mu_PIT17 -->
<g id="edge29" class="edge">
<title>beta&#45;&gt;mu_PIT17</title>
<path fill="none" stroke="black" d="M1434.82,-260.8C1434.3,-252.63 1433.74,-243.85 1433.19,-235.32"/>
<polygon fill="black" stroke="black" points="1436.67,-234.86 1432.53,-225.1 1429.68,-235.31 1436.67,-234.86"/>
</g>
<!-- beta&#45;&gt;mu_VGK18 -->
<g id="edge32" class="edge">
<title>beta&#45;&gt;mu_VGK18</title>
<path fill="none" stroke="black" d="M1386.76,-271.32C1376.85,-267.17 1366.36,-263.42 1356.18,-260.91 1097.22,-197.1 1015.34,-291.86 757.18,-224.91 750.7,-223.23 744.12,-220.99 737.67,-218.44"/>
<polygon fill="black" stroke="black" points="738.93,-215.17 728.35,-214.51 736.21,-221.62 738.93,-215.17"/>
</g>
<!-- beta&#45;&gt;mu_CHI13 -->
<g id="edge5" class="edge">
<title>beta&#45;&gt;mu_CHI13</title>
<path fill="none" stroke="black" d="M1475.98,-266.74C1492.56,-253.65 1512.04,-238.28 1529.32,-224.63"/>
<polygon fill="black" stroke="black" points="1531.93,-227.03 1537.61,-218.09 1527.59,-221.54 1531.93,-227.03"/>
</g>
<!-- beta&#45;&gt;mu_PIT16 -->
<g id="edge23" class="edge">
<title>beta&#45;&gt;mu_PIT16</title>
<path fill="none" stroke="black" d="M1498.83,-278.92C1541.61,-265.47 1599.6,-245.98 1649.18,-224.91 1654.49,-222.65 1659.95,-220.16 1665.37,-217.58"/>
<polygon fill="black" stroke="black" points="1666.97,-220.69 1674.43,-213.16 1663.9,-214.4 1666.97,-220.69"/>
</g>
<!-- beta&#45;&gt;mu_SJS16 -->
<g id="edge20" class="edge">
<title>beta&#45;&gt;mu_SJS16</title>
<path fill="none" stroke="black" d="M1507.17,-288.68C1579.66,-278.37 1695.51,-258.26 1791.18,-224.91 1796.99,-222.88 1802.94,-220.47 1808.79,-217.87"/>
<polygon fill="black" stroke="black" points="1810.28,-221.04 1817.89,-213.67 1807.34,-214.69 1810.28,-221.04"/>
</g>
<!-- beta&#45;&gt;mu_NSH17 -->
<g id="edge26" class="edge">
<title>beta&#45;&gt;mu_NSH17</title>
<path fill="none" stroke="black" d="M1509.1,-293.53C1607.21,-286.79 1787.66,-269.08 1935.18,-224.91 1941.62,-222.98 1948.21,-220.6 1954.7,-217.99"/>
<polygon fill="black" stroke="black" points="1956.24,-221.13 1964.1,-214.02 1953.52,-214.68 1956.24,-221.13"/>
</g>
<!-- beta&#45;&gt;mu_DAL20 -->
<g id="edge44" class="edge">
<title>beta&#45;&gt;mu_DAL20</title>
<path fill="none" stroke="black" d="M1509.34,-297.24C1631.51,-295.28 1885.81,-283.72 2091.18,-224.91 2097.6,-223.07 2104.16,-220.72 2110.59,-218.11"/>
<polygon fill="black" stroke="black" points="2112.08,-221.28 2119.89,-214.12 2109.32,-214.84 2112.08,-221.28"/>
</g>
<!-- beta&#45;&gt;mu_TBL21 -->
<g id="edge53" class="edge">
<title>beta&#45;&gt;mu_TBL21</title>
<path fill="none" stroke="black" d="M1386.72,-271.48C1376.81,-267.31 1366.33,-263.52 1356.18,-260.91 1161.41,-210.89 1099.04,-278.31 905.18,-224.91 899.01,-223.21 892.75,-220.99 886.61,-218.5"/>
<polygon fill="black" stroke="black" points="887.66,-215.14 877.09,-214.37 884.87,-221.56 887.66,-215.14"/>
</g>
<!-- beta&#45;&gt;mu_TBL20 -->
<g id="edge47" class="edge">
<title>beta&#45;&gt;mu_TBL20</title>
<path fill="none" stroke="black" d="M1509.07,-294.24C1679.7,-286.25 2105.04,-263.04 2242.18,-224.91 2248.64,-223.11 2255.23,-220.76 2261.67,-218.13"/>
<polygon fill="black" stroke="black" points="2263.2,-221.28 2270.99,-214.1 2260.42,-214.86 2263.2,-221.28"/>
</g>
<!-- beta&#45;&gt;mu_CHI15 -->
<g id="edge17" class="edge">
<title>beta&#45;&gt;mu_CHI15</title>
<path fill="none" stroke="black" d="M1509.37,-295.45C1702.06,-289.72 2225.05,-270.33 2391.18,-224.91 2397.58,-223.16 2404.09,-220.84 2410.46,-218.23"/>
<polygon fill="black" stroke="black" points="2411.9,-221.42 2419.67,-214.21 2409.1,-215 2411.9,-221.42"/>
</g>
<!-- beta&#45;&gt;mu_TBL15 -->
<g id="edge14" class="edge">
<title>beta&#45;&gt;mu_TBL15</title>
<path fill="none" stroke="black" d="M1509.24,-296.31C1721.86,-292.55 2343.79,-277.26 2539.18,-224.91 2545.59,-223.19 2552.11,-220.9 2558.48,-218.29"/>
<polygon fill="black" stroke="black" points="2559.91,-221.49 2567.69,-214.29 2557.12,-215.07 2559.91,-221.49"/>
</g>
<!-- beta&#45;&gt;mu_STL19 -->
<g id="edge38" class="edge">
<title>beta&#45;&gt;mu_STL19</title>
<path fill="none" stroke="black" d="M1387.25,-271.29C1377.2,-267.08 1366.54,-263.32 1356.18,-260.91 1125.53,-207.28 520.85,-282.55 291.18,-224.91 284.73,-223.29 278.2,-221.06 271.82,-218.5"/>
<polygon fill="black" stroke="black" points="273.17,-215.27 262.6,-214.53 270.4,-221.7 273.17,-215.27"/>
</g>
<!-- beta&#45;&gt;mu_NYR14 -->
<g id="edge8" class="edge">
<title>beta&#45;&gt;mu_NYR14</title>
<path fill="none" stroke="black" d="M1386.19,-271.63C1376.42,-267.5 1366.13,-263.68 1356.18,-260.91 1227.23,-225.01 1185.68,-262.37 1057.18,-224.91 1050.76,-223.04 1044.21,-220.67 1037.78,-218.05"/>
<polygon fill="black" stroke="black" points="1039.05,-214.78 1028.48,-214.05 1036.28,-221.21 1039.05,-214.78"/>
</g>
<!-- beta&#45;&gt;mu_LAK14 -->
<g id="edge11" class="edge">
<title>beta&#45;&gt;mu_LAK14</title>
<path fill="none" stroke="black" d="M1385.03,-272.19C1375.55,-268.11 1365.66,-264.16 1356.18,-260.91 1291.73,-238.82 1271.29,-247.94 1207.18,-224.91 1201.27,-222.79 1195.22,-220.34 1189.24,-217.74"/>
<polygon fill="black" stroke="black" points="1190.48,-214.46 1179.93,-213.54 1187.61,-220.84 1190.48,-214.46"/>
</g>
<!-- STL19 -->
<g id="node38" class="node">
<title>STL19</title>
<ellipse fill="lightgrey" stroke="black" cx="201.18" cy="-76.48" rx="50.41" ry="37.45"/>
<text text-anchor="middle" x="201.18" y="-87.78" font-family="Times,serif" font-size="14.00">STL19</text>
<text text-anchor="middle" x="201.18" y="-72.78" font-family="Times,serif" font-size="14.00">~</text>
<text text-anchor="middle" x="201.18" y="-57.78" font-family="Times,serif" font-size="14.00">Poisson</text>
</g>
<!-- mu_STL19&#45;&gt;STL19 -->
<g id="edge39" class="edge">
<title>mu_STL19&#45;&gt;STL19</title>
<path fill="none" stroke="black" d="M211.8,-149.85C210.58,-141.49 209.26,-132.51 207.98,-123.81"/>
<polygon fill="black" stroke="black" points="211.42,-123.16 206.51,-113.78 204.5,-124.18 211.42,-123.16"/>
</g>
<!-- NYR14 -->
<g id="node35" class="node">
<title>NYR14</title>
<ellipse fill="lightgrey" stroke="black" cx="933.18" cy="-76.48" rx="50.41" ry="37.45"/>
<text text-anchor="middle" x="933.18" y="-87.78" font-family="Times,serif" font-size="14.00">NYR14</text>
<text text-anchor="middle" x="933.18" y="-72.78" font-family="Times,serif" font-size="14.00">~</text>
<text text-anchor="middle" x="933.18" y="-57.78" font-family="Times,serif" font-size="14.00">Poisson</text>
</g>
<!-- mu_NYR14&#45;&gt;NYR14 -->
<g id="edge9" class="edge">
<title>mu_NYR14&#45;&gt;NYR14</title>
<path fill="none" stroke="black" d="M965.46,-150.75C961.4,-141.54 956.98,-131.5 952.75,-121.9"/>
<polygon fill="black" stroke="black" points="955.83,-120.23 948.6,-112.49 949.43,-123.05 955.83,-120.23"/>
</g>
<!-- LAK14 -->
<g id="node31" class="node">
<title>LAK14</title>
<ellipse fill="lightgrey" stroke="black" cx="1051.18" cy="-76.48" rx="50.41" ry="37.45"/>
<text text-anchor="middle" x="1051.18" y="-87.78" font-family="Times,serif" font-size="14.00">LAK14</text>
<text text-anchor="middle" x="1051.18" y="-72.78" font-family="Times,serif" font-size="14.00">~</text>
<text text-anchor="middle" x="1051.18" y="-57.78" font-family="Times,serif" font-size="14.00">Poisson</text>
</g>
<!-- mu_LAK14&#45;&gt;LAK14 -->
<g id="edge12" class="edge">
<title>mu_LAK14&#45;&gt;LAK14</title>
<path fill="none" stroke="black" d="M1106.99,-152.55C1098.84,-141.6 1089.73,-129.33 1081.26,-117.95"/>
<polygon fill="black" stroke="black" points="1084.01,-115.78 1075.24,-109.84 1078.39,-119.95 1084.01,-115.78"/>
</g>
</g>
</svg>
