<?xml version="1.0" encoding="UTF-8" standalone="no"?>
<!DOCTYPE svg PUBLIC "-//W3C//DTD SVG 1.1//EN"
 "http://www.w3.org/Graphics/SVG/1.1/DTD/svg11.dtd">
<!-- Generated by graphviz version 2.47.3 (20210619.2315)
 -->
<!-- Pages: 1 -->
<svg width="314pt" height="305pt"
 viewBox="0.00 0.00 314.25 304.86" xmlns="http://www.w3.org/2000/svg" xmlns:xlink="http://www.w3.org/1999/xlink">
<g id="graph0" class="graph" transform="scale(1 1) rotate(0) translate(4 300.86)">
<polygon fill="white" stroke="transparent" points="-4,4 -4,-300.86 310.25,-300.86 310.25,4 -4,4"/>
<!-- alpha -->
<g id="node1" class="node">
<title>alpha</title>
<ellipse fill="none" stroke="black" cx="72.12" cy="-259.38" rx="72.25" ry="37.45"/>
<text text-anchor="middle" x="72.12" y="-270.68" font-family="Times,serif" font-size="14.00">alpha</text>
<text text-anchor="middle" x="72.12" y="-255.68" font-family="Times,serif" font-size="14.00">~</text>
<text text-anchor="middle" x="72.12" y="-240.68" font-family="Times,serif" font-size="14.00">Exponential</text>
</g>
<!-- mu -->
<g id="node4" class="node">
<title>mu</title>
<ellipse fill="none" stroke="black" cx="153.12" cy="-148.43" rx="50.41" ry="37.45"/>
<text text-anchor="middle" x="153.12" y="-159.73" font-family="Times,serif" font-size="14.00">mu</text>
<text text-anchor="middle" x="153.12" y="-144.73" font-family="Times,serif" font-size="14.00">~</text>
<text text-anchor="middle" x="153.12" y="-129.73" font-family="Times,serif" font-size="14.00">Gamma</text>
</g>
<!-- alpha&#45;&gt;mu -->
<g id="edge1" class="edge">
<title>alpha&#45;&gt;mu</title>
<path fill="none" stroke="black" d="M97.53,-224.21C105.67,-213.26 114.76,-201.04 123.19,-189.7"/>
<polygon fill="black" stroke="black" points="126.03,-191.74 129.19,-181.63 120.41,-187.56 126.03,-191.74"/>
</g>
<!-- beta -->
<g id="node2" class="node">
<title>beta</title>
<ellipse fill="none" stroke="black" cx="234.12" cy="-259.38" rx="72.25" ry="37.45"/>
<text text-anchor="middle" x="234.12" y="-270.68" font-family="Times,serif" font-size="14.00">beta</text>
<text text-anchor="middle" x="234.12" y="-255.68" font-family="Times,serif" font-size="14.00">~</text>
<text text-anchor="middle" x="234.12" y="-240.68" font-family="Times,serif" font-size="14.00">Exponential</text>
</g>
<!-- beta&#45;&gt;mu -->
<g id="edge2" class="edge">
<title>beta&#45;&gt;mu</title>
<path fill="none" stroke="black" d="M208.72,-224.21C200.58,-213.26 191.49,-201.04 183.06,-189.7"/>
<polygon fill="black" stroke="black" points="185.84,-187.56 177.06,-181.63 180.22,-191.74 185.84,-187.56"/>
</g>
<!-- goals -->
<g id="node3" class="node">
<title>goals</title>
<ellipse fill="lightgrey" stroke="black" cx="153.12" cy="-37.48" rx="50.41" ry="37.45"/>
<text text-anchor="middle" x="153.12" y="-48.78" font-family="Times,serif" font-size="14.00">goals</text>
<text text-anchor="middle" x="153.12" y="-33.78" font-family="Times,serif" font-size="14.00">~</text>
<text text-anchor="middle" x="153.12" y="-18.78" font-family="Times,serif" font-size="14.00">Poisson</text>
</g>
<!-- mu&#45;&gt;goals -->
<g id="edge3" class="edge">
<title>mu&#45;&gt;goals</title>
<path fill="none" stroke="black" d="M153.12,-110.85C153.12,-102.67 153.12,-93.89 153.12,-85.37"/>
<polygon fill="black" stroke="black" points="156.62,-85.15 153.12,-75.15 149.62,-85.15 156.62,-85.15"/>
</g>
</g>
</svg>
