<?xml version="1.0" encoding="UTF-8" standalone="no"?>
<!DOCTYPE svg PUBLIC "-//W3C//DTD SVG 1.1//EN"
 "http://www.w3.org/Graphics/SVG/1.1/DTD/svg11.dtd">
<!-- Generated by graphviz version 2.47.3 (20210619.2315)
 -->
<!-- Pages: 1 -->
<svg width="226pt" height="344pt"
 viewBox="0.00 0.00 226.41 343.86" xmlns="http://www.w3.org/2000/svg" xmlns:xlink="http://www.w3.org/1999/xlink">
<g id="graph0" class="graph" transform="scale(1 1) rotate(0) translate(4 339.86)">
<polygon fill="white" stroke="transparent" points="-4,4 -4,-339.86 222.41,-339.86 222.41,4 -4,4"/>
<g id="clust1" class="cluster">
<title>cluster13</title>
<path fill="none" stroke="black" d="M56.2,-8C56.2,-8 162.2,-8 162.2,-8 168.2,-8 174.2,-14 174.2,-20 174.2,-20 174.2,-220.91 174.2,-220.91 174.2,-226.91 168.2,-232.91 162.2,-232.91 162.2,-232.91 56.2,-232.91 56.2,-232.91 50.2,-232.91 44.2,-226.91 44.2,-220.91 44.2,-220.91 44.2,-20 44.2,-20 44.2,-14 50.2,-8 56.2,-8"/>
<text text-anchor="middle" x="156.7" y="-15.8" font-family="Times,serif" font-size="14.00">13</text>
</g>
<!-- alpha -->
<g id="node1" class="node">
<title>alpha</title>
<ellipse fill="none" stroke="black" cx="50.2" cy="-298.38" rx="50.41" ry="37.45"/>
<text text-anchor="middle" x="50.2" y="-309.68" font-family="Times,serif" font-size="14.00">alpha</text>
<text text-anchor="middle" x="50.2" y="-294.68" font-family="Times,serif" font-size="14.00">~</text>
<text text-anchor="middle" x="50.2" y="-279.68" font-family="Times,serif" font-size="14.00">Gamma</text>
</g>
<!-- xs -->
<g id="node4" class="node">
<title>xs</title>
<ellipse fill="none" stroke="black" cx="109.2" cy="-187.43" rx="35.21" ry="37.45"/>
<text text-anchor="middle" x="109.2" y="-198.73" font-family="Times,serif" font-size="14.00">xs</text>
<text text-anchor="middle" x="109.2" y="-183.73" font-family="Times,serif" font-size="14.00">~</text>
<text text-anchor="middle" x="109.2" y="-168.73" font-family="Times,serif" font-size="14.00">Beta</text>
</g>
<!-- alpha&#45;&gt;xs -->
<g id="edge1" class="edge">
<title>alpha&#45;&gt;xs</title>
<path fill="none" stroke="black" d="M68.71,-263.21C74.58,-252.38 81.12,-240.29 87.21,-229.05"/>
<polygon fill="black" stroke="black" points="90.29,-230.72 91.97,-220.26 84.13,-227.38 90.29,-230.72"/>
</g>
<!-- beta -->
<g id="node2" class="node">
<title>beta</title>
<ellipse fill="none" stroke="black" cx="168.2" cy="-298.38" rx="50.41" ry="37.45"/>
<text text-anchor="middle" x="168.2" y="-309.68" font-family="Times,serif" font-size="14.00">beta</text>
<text text-anchor="middle" x="168.2" y="-294.68" font-family="Times,serif" font-size="14.00">~</text>
<text text-anchor="middle" x="168.2" y="-279.68" font-family="Times,serif" font-size="14.00">Gamma</text>
</g>
<!-- beta&#45;&gt;xs -->
<g id="edge2" class="edge">
<title>beta&#45;&gt;xs</title>
<path fill="none" stroke="black" d="M149.7,-263.21C143.83,-252.38 137.29,-240.29 131.2,-229.05"/>
<polygon fill="black" stroke="black" points="134.28,-227.38 126.44,-220.26 128.12,-230.72 134.28,-227.38"/>
</g>
<!-- ks -->
<g id="node3" class="node">
<title>ks</title>
<ellipse fill="lightgrey" stroke="black" cx="109.2" cy="-76.48" rx="56.64" ry="37.45"/>
<text text-anchor="middle" x="109.2" y="-87.78" font-family="Times,serif" font-size="14.00">ks</text>
<text text-anchor="middle" x="109.2" y="-72.78" font-family="Times,serif" font-size="14.00">~</text>
<text text-anchor="middle" x="109.2" y="-57.78" font-family="Times,serif" font-size="14.00">Binomial</text>
</g>
<!-- xs&#45;&gt;ks -->
<g id="edge3" class="edge">
<title>xs&#45;&gt;ks</title>
<path fill="none" stroke="black" d="M109.2,-149.85C109.2,-141.67 109.2,-132.89 109.2,-124.37"/>
<polygon fill="black" stroke="black" points="112.7,-124.15 109.2,-114.15 105.7,-124.15 112.7,-124.15"/>
</g>
</g>
</svg>
