<?xml version="1.0" encoding="UTF-8" standalone="no"?>
<!DOCTYPE svg PUBLIC "-//W3C//DTD SVG 1.1//EN"
 "http://www.w3.org/Graphics/SVG/1.1/DTD/svg11.dtd">
<!-- Generated by graphviz version 2.47.3 (20210619.2315)
 -->
<!-- Pages: 1 -->
<svg width="252pt" height="194pt"
 viewBox="0.00 0.00 252.14 193.91" xmlns="http://www.w3.org/2000/svg" xmlns:xlink="http://www.w3.org/1999/xlink">
<g id="graph0" class="graph" transform="scale(1 1) rotate(0) translate(4 189.91)">
<polygon fill="white" stroke="transparent" points="-4,4 -4,-189.91 248.14,-189.91 248.14,4 -4,4"/>
<!-- x2 -->
<g id="node1" class="node">
<title>x2</title>
<ellipse fill="none" stroke="black" cx="56.57" cy="-148.43" rx="35.21" ry="37.45"/>
<text text-anchor="middle" x="56.57" y="-159.73" font-family="Times,serif" font-size="14.00">x2</text>
<text text-anchor="middle" x="56.57" y="-144.73" font-family="Times,serif" font-size="14.00">~</text>
<text text-anchor="middle" x="56.57" y="-129.73" font-family="Times,serif" font-size="14.00">Beta</text>
</g>
<!-- k2 -->
<g id="node4" class="node">
<title>k2</title>
<ellipse fill="lightgrey" stroke="black" cx="56.57" cy="-37.48" rx="56.64" ry="37.45"/>
<text text-anchor="middle" x="56.57" y="-48.78" font-family="Times,serif" font-size="14.00">k2</text>
<text text-anchor="middle" x="56.57" y="-33.78" font-family="Times,serif" font-size="14.00">~</text>
<text text-anchor="middle" x="56.57" y="-18.78" font-family="Times,serif" font-size="14.00">Binomial</text>
</g>
<!-- x2&#45;&gt;k2 -->
<g id="edge2" class="edge">
<title>x2&#45;&gt;k2</title>
<path fill="none" stroke="black" d="M56.57,-110.85C56.57,-102.67 56.57,-93.89 56.57,-85.37"/>
<polygon fill="black" stroke="black" points="60.07,-85.15 56.57,-75.15 53.07,-85.15 60.07,-85.15"/>
</g>
<!-- k1 -->
<g id="node2" class="node">
<title>k1</title>
<ellipse fill="lightgrey" stroke="black" cx="187.57" cy="-37.48" rx="56.64" ry="37.45"/>
<text text-anchor="middle" x="187.57" y="-48.78" font-family="Times,serif" font-size="14.00">k1</text>
<text text-anchor="middle" x="187.57" y="-33.78" font-family="Times,serif" font-size="14.00">~</text>
<text text-anchor="middle" x="187.57" y="-18.78" font-family="Times,serif" font-size="14.00">Binomial</text>
</g>
<!-- x1 -->
<g id="node3" class="node">
<title>x1</title>
<ellipse fill="none" stroke="black" cx="187.57" cy="-148.43" rx="35.21" ry="37.45"/>
<text text-anchor="middle" x="187.57" y="-159.73" font-family="Times,serif" font-size="14.00">x1</text>
<text text-anchor="middle" x="187.57" y="-144.73" font-family="Times,serif" font-size="14.00">~</text>
<text text-anchor="middle" x="187.57" y="-129.73" font-family="Times,serif" font-size="14.00">Beta</text>
</g>
<!-- x1&#45;&gt;k1 -->
<g id="edge1" class="edge">
<title>x1&#45;&gt;k1</title>
<path fill="none" stroke="black" d="M187.57,-110.85C187.57,-102.67 187.57,-93.89 187.57,-85.37"/>
<polygon fill="black" stroke="black" points="191.07,-85.15 187.57,-75.15 184.07,-85.15 191.07,-85.15"/>
</g>
</g>
</svg>
