<?xml version="1.0" encoding="UTF-8" standalone="no"?>
<!DOCTYPE svg PUBLIC "-//W3C//DTD SVG 1.1//EN"
 "http://www.w3.org/Graphics/SVG/1.1/DTD/svg11.dtd">
<!-- Generated by graphviz version 2.47.3 (20210619.2315)
 -->
<!-- Pages: 1 -->
<svg width="314pt" height="344pt"
 viewBox="0.00 0.00 314.25 343.86" xmlns="http://www.w3.org/2000/svg" xmlns:xlink="http://www.w3.org/1999/xlink">
<g id="graph0" class="graph" transform="scale(1 1) rotate(0) translate(4 339.86)">
<polygon fill="white" stroke="transparent" points="-4,4 -4,-339.86 310.25,-339.86 310.25,4 -4,4"/>
<g id="clust1" class="cluster">
<title>cluster2</title>
<path fill="none" stroke="black" d="M48.12,-8C48.12,-8 258.12,-8 258.12,-8 264.12,-8 270.12,-14 270.12,-20 270.12,-20 270.12,-109.95 270.12,-109.95 270.12,-115.95 264.12,-121.95 258.12,-121.95 258.12,-121.95 48.12,-121.95 48.12,-121.95 42.12,-121.95 36.12,-115.95 36.12,-109.95 36.12,-109.95 36.12,-20 36.12,-20 36.12,-14 42.12,-8 48.12,-8"/>
<text text-anchor="middle" x="257.12" y="-15.8" font-family="Times,serif" font-size="14.00">2</text>
</g>
<!-- alpha -->
<g id="node1" class="node">
<title>alpha</title>
<ellipse fill="none" stroke="black" cx="72.12" cy="-298.38" rx="72.25" ry="37.45"/>
<text text-anchor="middle" x="72.12" y="-309.68" font-family="Times,serif" font-size="14.00">alpha</text>
<text text-anchor="middle" x="72.12" y="-294.68" font-family="Times,serif" font-size="14.00">~</text>
<text text-anchor="middle" x="72.12" y="-279.68" font-family="Times,serif" font-size="14.00">Exponential</text>
</g>
<!-- mu_B -->
<g id="node3" class="node">
<title>mu_B</title>
<ellipse fill="none" stroke="black" cx="94.12" cy="-187.43" rx="50.41" ry="37.45"/>
<text text-anchor="middle" x="94.12" y="-198.73" font-family="Times,serif" font-size="14.00">mu_B</text>
<text text-anchor="middle" x="94.12" y="-183.73" font-family="Times,serif" font-size="14.00">~</text>
<text text-anchor="middle" x="94.12" y="-168.73" font-family="Times,serif" font-size="14.00">Gamma</text>
</g>
<!-- alpha&#45;&gt;mu_B -->
<g id="edge3" class="edge">
<title>alpha&#45;&gt;mu_B</title>
<path fill="none" stroke="black" d="M79.51,-260.8C81.2,-252.45 83.01,-243.46 84.77,-234.76"/>
<polygon fill="black" stroke="black" points="88.25,-235.23 86.79,-224.73 81.38,-233.84 88.25,-235.23"/>
</g>
<!-- mu_A -->
<g id="node4" class="node">
<title>mu_A</title>
<ellipse fill="none" stroke="black" cx="212.12" cy="-187.43" rx="50.41" ry="37.45"/>
<text text-anchor="middle" x="212.12" y="-198.73" font-family="Times,serif" font-size="14.00">mu_A</text>
<text text-anchor="middle" x="212.12" y="-183.73" font-family="Times,serif" font-size="14.00">~</text>
<text text-anchor="middle" x="212.12" y="-168.73" font-family="Times,serif" font-size="14.00">Gamma</text>
</g>
<!-- alpha&#45;&gt;mu_A -->
<g id="edge1" class="edge">
<title>alpha&#45;&gt;mu_A</title>
<path fill="none" stroke="black" d="M111.5,-266.74C129.59,-252.66 151.09,-235.93 169.56,-221.56"/>
<polygon fill="black" stroke="black" points="172.06,-224.04 177.81,-215.14 167.76,-218.52 172.06,-224.04"/>
</g>
<!-- beta -->
<g id="node2" class="node">
<title>beta</title>
<ellipse fill="none" stroke="black" cx="234.12" cy="-298.38" rx="72.25" ry="37.45"/>
<text text-anchor="middle" x="234.12" y="-309.68" font-family="Times,serif" font-size="14.00">beta</text>
<text text-anchor="middle" x="234.12" y="-294.68" font-family="Times,serif" font-size="14.00">~</text>
<text text-anchor="middle" x="234.12" y="-279.68" font-family="Times,serif" font-size="14.00">Exponential</text>
</g>
<!-- beta&#45;&gt;mu_B -->
<g id="edge4" class="edge">
<title>beta&#45;&gt;mu_B</title>
<path fill="none" stroke="black" d="M194.75,-266.74C176.66,-252.66 155.16,-235.93 136.69,-221.56"/>
<polygon fill="black" stroke="black" points="138.49,-218.52 128.44,-215.14 134.19,-224.04 138.49,-218.52"/>
</g>
<!-- beta&#45;&gt;mu_A -->
<g id="edge2" class="edge">
<title>beta&#45;&gt;mu_A</title>
<path fill="none" stroke="black" d="M226.74,-260.8C225.05,-252.45 223.24,-243.46 221.48,-234.76"/>
<polygon fill="black" stroke="black" points="224.86,-233.84 219.45,-224.73 218,-235.23 224.86,-233.84"/>
</g>
<!-- goals_B -->
<g id="node6" class="node">
<title>goals_B</title>
<ellipse fill="lightgrey" stroke="black" cx="94.12" cy="-76.48" rx="50.41" ry="37.45"/>
<text text-anchor="middle" x="94.12" y="-87.78" font-family="Times,serif" font-size="14.00">goals_B</text>
<text text-anchor="middle" x="94.12" y="-72.78" font-family="Times,serif" font-size="14.00">~</text>
<text text-anchor="middle" x="94.12" y="-57.78" font-family="Times,serif" font-size="14.00">Poisson</text>
</g>
<!-- mu_B&#45;&gt;goals_B -->
<g id="edge6" class="edge">
<title>mu_B&#45;&gt;goals_B</title>
<path fill="none" stroke="black" d="M94.12,-149.85C94.12,-141.67 94.12,-132.89 94.12,-124.37"/>
<polygon fill="black" stroke="black" points="97.62,-124.15 94.12,-114.15 90.62,-124.15 97.62,-124.15"/>
</g>
<!-- goals_A -->
<g id="node5" class="node">
<title>goals_A</title>
<ellipse fill="lightgrey" stroke="black" cx="212.12" cy="-76.48" rx="50.41" ry="37.45"/>
<text text-anchor="middle" x="212.12" y="-87.78" font-family="Times,serif" font-size="14.00">goals_A</text>
<text text-anchor="middle" x="212.12" y="-72.78" font-family="Times,serif" font-size="14.00">~</text>
<text text-anchor="middle" x="212.12" y="-57.78" font-family="Times,serif" font-size="14.00">Poisson</text>
</g>
<!-- mu_A&#45;&gt;goals_A -->
<g id="edge5" class="edge">
<title>mu_A&#45;&gt;goals_A</title>
<path fill="none" stroke="black" d="M212.12,-149.85C212.12,-141.67 212.12,-132.89 212.12,-124.37"/>
<polygon fill="black" stroke="black" points="215.62,-124.15 212.12,-114.15 208.62,-124.15 215.62,-124.15"/>
</g>
</g>
</svg>
